<svg height="24" fill="currentColor" class="icon" viewBox="0 0 24 24" width="24" xmlns="http://www.w3.org/2000/svg"><path d="m22.014 11.974c-.018-5.512-4.493-9.974-10.006-9.974-5.515 0-9.989 4.462-10.007 9.974 0-.01-.001-.017-.001-.026v.054.003.001.054c0-.007 0-.015.001-.023.017 5.513 4.491 9.977 10.007 9.977 5.514 0 9.988-4.462 10.006-9.974 0 .009.001.017.001.026v-.054c0-.001 0-.003 0-.005s0-.003 0-.005v-.054c0 .01-.001.017-.001.026zm-12.733 4.583c-2.509 0-4.548-2.039-4.548-4.549s2.039-4.549 4.548-4.549c1.23 0 2.258.451 3.046 1.188l-1.295 1.255c-.325-.309-.899-.673-1.751-.673-1.505 0-2.733 1.251-2.733 2.785 0 1.533 1.229 2.784 2.733 2.784 1.742 0 2.384-1.206 2.502-1.92h-2.504v-.004-1.694h4.255c.066.286.115.554.115.932 0 2.597-1.742 4.445-4.368 4.445zm10.458-4.095h-1.819v1.819h-1.364v-1.819h-1.82v-1.364h1.82v-1.82h1.364v1.82h1.819z" fill="#fff"/></svg>