<svg width="259" height="100" viewBox="0 0 259 100" fill="none" xmlns="http://www.w3.org/2000/svg">
<path d="M77.1026 83.5C72.8687 90.8333 62.284 90.8333 58.0501 83.5L33.8014 41.5C29.5675 34.1667 34.8599 25 43.3277 25L91.825 25C100.293 25 105.585 34.1667 101.351 41.5L77.1026 83.5Z" fill="#FFB500"/>
<path d="M59.5262 83.4999C55.2923 90.8332 44.7075 90.8332 40.4736 83.4999L16.225 41.4999C11.9911 34.1666 17.2834 25 25.7512 25L74.2486 24.9999C82.7164 24.9999 88.0088 34.1666 83.7749 41.4999L59.5262 83.4999Z" fill="white"/>
<path d="M148.45 47.47L143.32 64H139.72L136.39 51.79L133.06 64H129.46L124.3 47.47H127.78L131.23 60.76L134.74 47.47H138.31L141.67 60.7L145.09 47.47H148.45ZM166.156 55.33C166.156 55.95 166.116 56.51 166.036 57.01H153.406C153.506 58.33 153.996 59.39 154.876 60.19C155.756 60.99 156.836 61.39 158.116 61.39C159.956 61.39 161.256 60.62 162.016 59.08H165.706C165.206 60.6 164.296 61.85 162.976 62.83C161.676 63.79 160.056 64.27 158.116 64.27C156.536 64.27 155.116 63.92 153.856 63.22C152.616 62.5 151.636 61.5 150.916 60.22C150.216 58.92 149.866 57.42 149.866 55.72C149.866 54.02 150.206 52.53 150.886 51.25C151.586 49.95 152.556 48.95 153.796 48.25C155.056 47.55 156.496 47.2 158.116 47.2C159.676 47.2 161.066 47.54 162.286 48.22C163.506 48.9 164.456 49.86 165.136 51.1C165.816 52.32 166.156 53.73 166.156 55.33ZM162.586 54.25C162.566 52.99 162.116 51.98 161.236 51.22C160.356 50.46 159.266 50.08 157.966 50.08C156.786 50.08 155.776 50.46 154.936 51.22C154.096 51.96 153.596 52.97 153.436 54.25H162.586ZM172.941 49.93C173.521 49.13 174.311 48.48 175.311 47.98C176.331 47.46 177.461 47.2 178.701 47.2C180.161 47.2 181.481 47.55 182.661 48.25C183.841 48.95 184.771 49.95 185.451 51.25C186.131 52.53 186.471 54 186.471 55.66C186.471 57.32 186.131 58.81 185.451 60.13C184.771 61.43 183.831 62.45 182.631 63.19C181.451 63.91 180.141 64.27 178.701 64.27C177.421 64.27 176.281 64.02 175.281 63.52C174.301 63.02 173.521 62.38 172.941 61.6V64H169.521V41.8H172.941V49.93ZM182.991 55.66C182.991 54.52 182.751 53.54 182.271 52.72C181.811 51.88 181.191 51.25 180.411 50.83C179.651 50.39 178.831 50.17 177.951 50.17C177.091 50.17 176.271 50.39 175.491 50.83C174.731 51.27 174.111 51.91 173.631 52.75C173.171 53.59 172.941 54.58 172.941 55.72C172.941 56.86 173.171 57.86 173.631 58.72C174.111 59.56 174.731 60.2 175.491 60.64C176.271 61.08 177.091 61.3 177.951 61.3C178.831 61.3 179.651 61.08 180.411 60.64C181.191 60.18 181.811 59.52 182.271 58.66C182.751 57.8 182.991 56.8 182.991 55.66ZM197.024 64.27C195.464 64.27 194.054 63.92 192.794 63.22C191.534 62.5 190.544 61.5 189.824 60.22C189.104 58.92 188.744 57.42 188.744 55.72C188.744 54.04 189.114 52.55 189.854 51.25C190.594 49.95 191.604 48.95 192.884 48.25C194.164 47.55 195.594 47.2 197.174 47.2C198.754 47.2 200.184 47.55 201.464 48.25C202.744 48.95 203.754 49.95 204.494 51.25C205.234 52.55 205.604 54.04 205.604 55.72C205.604 57.4 205.224 58.89 204.464 60.19C203.704 61.49 202.664 62.5 201.344 63.22C200.044 63.92 198.604 64.27 197.024 64.27ZM197.024 61.3C197.904 61.3 198.724 61.09 199.484 60.67C200.264 60.25 200.894 59.62 201.374 58.78C201.854 57.94 202.094 56.92 202.094 55.72C202.094 54.52 201.864 53.51 201.404 52.69C200.944 51.85 200.334 51.22 199.574 50.8C198.814 50.38 197.994 50.17 197.114 50.17C196.234 50.17 195.414 50.38 194.654 50.8C193.914 51.22 193.324 51.85 192.884 52.69C192.444 53.51 192.224 54.52 192.224 55.72C192.224 57.5 192.674 58.88 193.574 59.86C194.494 60.82 195.644 61.3 197.024 61.3ZM215.374 60.94L220.054 47.47H223.684L217.384 64H213.304L207.034 47.47H210.694L215.374 60.94ZM228.01 45.28C227.39 45.28 226.87 45.07 226.45 44.65C226.03 44.23 225.82 43.71 225.82 43.09C225.82 42.47 226.03 41.95 226.45 41.53C226.87 41.11 227.39 40.9 228.01 40.9C228.61 40.9 229.12 41.11 229.54 41.53C229.96 41.95 230.17 42.47 230.17 43.09C230.17 43.71 229.96 44.23 229.54 44.65C229.12 45.07 228.61 45.28 228.01 45.28ZM229.69 47.47V64H226.27V47.47H229.69ZM241.35 64.27C239.79 64.27 238.38 63.92 237.12 63.22C235.86 62.5 234.87 61.5 234.15 60.22C233.43 58.92 233.07 57.42 233.07 55.72C233.07 54.04 233.44 52.55 234.18 51.25C234.92 49.95 235.93 48.95 237.21 48.25C238.49 47.55 239.92 47.2 241.5 47.2C243.08 47.2 244.51 47.55 245.79 48.25C247.07 48.95 248.08 49.95 248.82 51.25C249.56 52.55 249.93 54.04 249.93 55.72C249.93 57.4 249.55 58.89 248.79 60.19C248.03 61.49 246.99 62.5 245.67 63.22C244.37 63.92 242.93 64.27 241.35 64.27ZM241.35 61.3C242.23 61.3 243.05 61.09 243.81 60.67C244.59 60.25 245.22 59.62 245.7 58.78C246.18 57.94 246.42 56.92 246.42 55.72C246.42 54.52 246.19 53.51 245.73 52.69C245.27 51.85 244.66 51.22 243.9 50.8C243.14 50.38 242.32 50.17 241.44 50.17C240.56 50.17 239.74 50.38 238.98 50.8C238.24 51.22 237.65 51.85 237.21 52.69C236.77 53.51 236.55 54.52 236.55 55.72C236.55 57.5 237 58.88 237.9 59.86C238.82 60.82 239.97 61.3 241.35 61.3ZM254.691 64.21C254.071 64.21 253.551 64 253.131 63.58C252.711 63.16 252.501 62.64 252.501 62.02C252.501 61.4 252.711 60.88 253.131 60.46C253.551 60.04 254.071 59.83 254.691 59.83C255.291 59.83 255.801 60.04 256.221 60.46C256.641 60.88 256.851 61.4 256.851 62.02C256.851 62.64 256.641 63.16 256.221 63.58C255.801 64 255.291 64.21 254.691 64.21Z" fill="white"/>
</svg>
